<?xml version="1.0" encoding="utf-8" standalone="no"?>
<!DOCTYPE svg PUBLIC "-//W3C//DTD SVG 1.1//EN"
  "http://www.w3.org/Graphics/SVG/1.1/DTD/svg11.dtd">
<svg xmlns:xlink="http://www.w3.org/1999/xlink" width="460.8pt" height="460.8pt" viewBox="0 0 460.8 460.8" xmlns="http://www.w3.org/2000/svg" version="1.1">
 <metadata>
  <rdf:RDF xmlns:dc="http://purl.org/dc/elements/1.1/" xmlns:cc="http://creativecommons.org/ns#" xmlns:rdf="http://www.w3.org/1999/02/22-rdf-syntax-ns#">
   <cc:Work>
    <dc:type rdf:resource="http://purl.org/dc/dcmitype/StillImage"/>
    <dc:date>2026-02-27T10:47:05.976483</dc:date>
    <dc:format>image/svg+xml</dc:format>
    <dc:creator>
     <cc:Agent>
      <dc:title>Matplotlib v3.10.3, https://matplotlib.org/</dc:title>
     </cc:Agent>
    </dc:creator>
   </cc:Work>
  </rdf:RDF>
 </metadata>
 <defs>
  <style type="text/css">*{stroke-linejoin: round; stroke-linecap: butt}</style>
 </defs>
 <g id="figure_1">
  <g id="patch_1">
   <path d="M 0 460.8 
L 460.8 460.8 
L 460.8 0 
L 0 0 
z
" style="fill: #ffffff"/>
  </g>
  <g id="patch_2">
   <path d="M 58.752 410.112 
L 413.568 410.112 
L 413.568 55.296 
L 58.752 55.296 
z
" style="fill: #ffffff"/>
  </g>
  <g id="pane3d_1">
   <g id="patch_3">
    <path d="M 387.040631 323.742242 
L 245.716081 257.718112 
L 245.927491 76.41591 
L 394.012676 132.020142 
" style="fill: #f2f2f2; opacity: 0.5; stroke: #f2f2f2; stroke-linejoin: miter"/>
   </g>
  </g>
  <g id="pane3d_2">
   <g id="patch_4">
    <path d="M 95.569938 318.991192 
L 245.716081 257.718112 
L 245.927491 76.41591 
L 88.66622 128.007087 
" style="fill: #e6e6e6; opacity: 0.5; stroke: #e6e6e6; stroke-linejoin: miter"/>
   </g>
  </g>
  <g id="pane3d_3">
   <g id="patch_5">
    <path d="M 235.489257 394.417903 
L 387.040631 323.742242 
L 245.716081 257.718112 
L 95.569938 318.991192 
" style="fill: #ececec; opacity: 0.5; stroke: #ececec; stroke-linejoin: miter"/>
   </g>
  </g>
  <g id="grid3d_1">
   <g id="Line3DCollection_1">
    <path d="M 235.489257 394.417903 
L 95.569938 318.991192 
L 88.66622 128.007087 
" style="fill: none; stroke: #b0b0b0; stroke-width: 0.8"/>
    <path d="M 288.354355 369.764378 
L 147.783037 297.683569 
L 143.458806 110.031815 
" style="fill: none; stroke: #b0b0b0; stroke-width: 0.8"/>
    <path d="M 338.818153 346.230692 
L 197.785942 277.277904 
L 195.826744 92.851975 
" style="fill: none; stroke: #b0b0b0; stroke-width: 0.8"/>
    <path d="M 387.040631 323.742242 
L 245.716081 257.718112 
L 245.927491 76.41591 
" style="fill: none; stroke: #b0b0b0; stroke-width: 0.8"/>
   </g>
  </g>
  <g id="grid3d_2">
   <g id="Line3DCollection_2">
    <path d="M 394.012676 132.020142 
L 387.040631 323.742242 
L 235.489257 394.417903 
" style="fill: none; stroke: #b0b0b0; stroke-width: 0.8"/>
    <path d="M 342.247675 112.582998 
L 337.740939 300.710368 
L 186.528751 368.024622 
" style="fill: none; stroke: #b0b0b0; stroke-width: 0.8"/>
    <path d="M 292.94306 94.069699 
L 290.682572 278.725598 
L 139.945314 342.912755 
" style="fill: none; stroke: #b0b0b0; stroke-width: 0.8"/>
    <path d="M 245.927491 76.41591 
L 245.716081 257.718112 
L 95.569938 318.991192 
" style="fill: none; stroke: #b0b0b0; stroke-width: 0.8"/>
   </g>
  </g>
  <g id="grid3d_3">
   <g id="Line3DCollection_3">
    <path d="M 95.569938 318.991192 
L 245.716081 257.718112 
L 387.040631 323.742242 
" style="fill: none; stroke: #b0b0b0; stroke-width: 0.8"/>
    <path d="M 93.339314 257.283322 
L 245.784525 199.021544 
L 389.292983 261.805523 
" style="fill: none; stroke: #b0b0b0; stroke-width: 0.8"/>
    <path d="M 91.039175 193.652393 
L 245.854965 138.612818 
L 391.615875 197.929016 
" style="fill: none; stroke: #b0b0b0; stroke-width: 0.8"/>
    <path d="M 88.66622 128.007087 
L 245.927491 76.41591 
L 394.012676 132.020142 
" style="fill: none; stroke: #b0b0b0; stroke-width: 0.8"/>
   </g>
  </g>
  <g id="axis3d_1">
   <g id="line2d_1">
    <path d="M 387.040631 323.742242 
L 235.489257 394.417903 
" style="fill: none; stroke: #000000; stroke-width: 0.8; stroke-linecap: square"/>
   </g>
   <g id="xtick_1">
    <g id="line2d_2">
     <path d="M 234.284962 393.7687 
L 237.902278 395.718697 
" style="fill: none; stroke: #000000; stroke-width: 0.8; stroke-linecap: square"/>
    </g>
    <g id="text_1">
     <!-- 0.3 -->
     <g transform="translate(236.944093 419.084277) scale(0.1 -0.1)">
      <defs>
       <path id="DejaVuSans-30" d="M 2034 4250 
Q 1547 4250 1301 3770 
Q 1056 3291 1056 2328 
Q 1056 1369 1301 889 
Q 1547 409 2034 409 
Q 2525 409 2770 889 
Q 3016 1369 3016 2328 
Q 3016 3291 2770 3770 
Q 2525 4250 2034 4250 
z
M 2034 4750 
Q 2819 4750 3233 4129 
Q 3647 3509 3647 2328 
Q 3647 1150 3233 529 
Q 2819 -91 2034 -91 
Q 1250 -91 836 529 
Q 422 1150 422 2328 
Q 422 3509 836 4129 
Q 1250 4750 2034 4750 
z
" transform="scale(0.015625)"/>
       <path id="DejaVuSans-2e" d="M 684 794 
L 1344 794 
L 1344 0 
L 684 0 
L 684 794 
z
" transform="scale(0.015625)"/>
       <path id="DejaVuSans-33" d="M 2597 2516 
Q 3050 2419 3304 2112 
Q 3559 1806 3559 1356 
Q 3559 666 3084 287 
Q 2609 -91 1734 -91 
Q 1441 -91 1130 -33 
Q 819 25 488 141 
L 488 750 
Q 750 597 1062 519 
Q 1375 441 1716 441 
Q 2309 441 2620 675 
Q 2931 909 2931 1356 
Q 2931 1769 2642 2001 
Q 2353 2234 1838 2234 
L 1294 2234 
L 1294 2753 
L 1863 2753 
Q 2328 2753 2575 2939 
Q 2822 3125 2822 3475 
Q 2822 3834 2567 4026 
Q 2313 4219 1838 4219 
Q 1578 4219 1281 4162 
Q 984 4106 628 3988 
L 628 4550 
Q 988 4650 1302 4700 
Q 1616 4750 1894 4750 
Q 2613 4750 3031 4423 
Q 3450 4097 3450 3541 
Q 3450 3153 3228 2886 
Q 3006 2619 2597 2516 
z
" transform="scale(0.015625)"/>
      </defs>
      <use xlink:href="#DejaVuSans-30"/>
      <use xlink:href="#DejaVuSans-2e" transform="translate(63.623047 0)"/>
      <use xlink:href="#DejaVuSans-33" transform="translate(95.410156 0)"/>
     </g>
    </g>
   </g>
   <g id="xtick_2">
    <g id="line2d_3">
     <path d="M 287.14643 369.144989 
L 290.774545 371.005379 
" style="fill: none; stroke: #000000; stroke-width: 0.8; stroke-linecap: square"/>
    </g>
   </g>
   <g id="xtick_3">
    <g id="line2d_4">
     <path d="M 337.608166 345.639111 
L 341.242376 347.415932 
" style="fill: none; stroke: #000000; stroke-width: 0.8; stroke-linecap: square"/>
    </g>
   </g>
   <g id="xtick_4">
    <g id="line2d_5">
     <path d="M 385.829954 323.176637 
L 389.466143 324.875395 
" style="fill: none; stroke: #000000; stroke-width: 0.8; stroke-linecap: square"/>
    </g>
    <g id="text_2">
     <!-- 3.2 -->
     <g transform="translate(388.11236 347.155631) scale(0.1 -0.1)">
      <defs>
       <path id="DejaVuSans-32" d="M 1228 531 
L 3431 531 
L 3431 0 
L 469 0 
L 469 531 
Q 828 903 1448 1529 
Q 2069 2156 2228 2338 
Q 2531 2678 2651 2914 
Q 2772 3150 2772 3378 
Q 2772 3750 2511 3984 
Q 2250 4219 1831 4219 
Q 1534 4219 1204 4116 
Q 875 4013 500 3803 
L 500 4441 
Q 881 4594 1212 4672 
Q 1544 4750 1819 4750 
Q 2544 4750 2975 4387 
Q 3406 4025 3406 3419 
Q 3406 3131 3298 2873 
Q 3191 2616 2906 2266 
Q 2828 2175 2409 1742 
Q 1991 1309 1228 531 
z
" transform="scale(0.015625)"/>
      </defs>
      <use xlink:href="#DejaVuSans-33"/>
      <use xlink:href="#DejaVuSans-2e" transform="translate(63.623047 0)"/>
      <use xlink:href="#DejaVuSans-32" transform="translate(95.410156 0)"/>
     </g>
    </g>
   </g>
   <g id="text_3">
    <!-- $Z_1$ -->
    <g transform="translate(329.852516 398.57547) rotate(-25.001893) scale(0.1 -0.1)">
     <defs>
      <path id="DejaVuSans-Oblique-5a" d="M 838 4666 
L 4500 4666 
L 4409 4184 
L 794 531 
L 3769 531 
L 3669 0 
L -141 0 
L -50 481 
L 3566 4134 
L 738 4134 
L 838 4666 
z
" transform="scale(0.015625)"/>
      <path id="DejaVuSans-31" d="M 794 531 
L 1825 531 
L 1825 4091 
L 703 3866 
L 703 4441 
L 1819 4666 
L 2450 4666 
L 2450 531 
L 3481 531 
L 3481 0 
L 794 0 
L 794 531 
z
" transform="scale(0.015625)"/>
     </defs>
     <use xlink:href="#DejaVuSans-Oblique-5a" transform="translate(0 0.09375)"/>
     <use xlink:href="#DejaVuSans-31" transform="translate(68.505859 -16.3125) scale(0.7)"/>
    </g>
   </g>
  </g>
  <g id="axis3d_2">
   <g id="line2d_6">
    <path d="M 95.569938 318.991192 
L 235.489257 394.417903 
" style="fill: none; stroke: #000000; stroke-width: 0.8; stroke-linecap: square"/>
   </g>
   <g id="xtick_5">
    <g id="line2d_7">
     <path d="M 236.787465 393.812487 
L 232.888389 395.630813 
" style="fill: none; stroke: #000000; stroke-width: 0.8; stroke-linecap: square"/>
    </g>
    <g id="text_4">
     <!-- 0.5 -->
     <g transform="translate(217.435994 418.7373) scale(0.1 -0.1)">
      <defs>
       <path id="DejaVuSans-35" d="M 691 4666 
L 3169 4666 
L 3169 4134 
L 1269 4134 
L 1269 2991 
Q 1406 3038 1543 3061 
Q 1681 3084 1819 3084 
Q 2600 3084 3056 2656 
Q 3513 2228 3513 1497 
Q 3513 744 3044 326 
Q 2575 -91 1722 -91 
Q 1428 -91 1123 -41 
Q 819 9 494 109 
L 494 744 
Q 775 591 1075 516 
Q 1375 441 1709 441 
Q 2250 441 2565 725 
Q 2881 1009 2881 1497 
Q 2881 1984 2565 2268 
Q 2250 2553 1709 2553 
Q 1456 2553 1204 2497 
Q 953 2441 691 2322 
L 691 4666 
z
" transform="scale(0.015625)"/>
      </defs>
      <use xlink:href="#DejaVuSans-30"/>
      <use xlink:href="#DejaVuSans-2e" transform="translate(63.623047 0)"/>
      <use xlink:href="#DejaVuSans-35" transform="translate(95.410156 0)"/>
     </g>
    </g>
   </g>
   <g id="xtick_6">
    <g id="line2d_8">
     <path d="M 187.821925 367.448947 
L 183.938078 369.177897 
" style="fill: none; stroke: #000000; stroke-width: 0.8; stroke-linecap: square"/>
    </g>
   </g>
   <g id="xtick_7">
    <g id="line2d_9">
     <path d="M 141.232407 342.364683 
L 137.366928 344.010687 
" style="fill: none; stroke: #000000; stroke-width: 0.8; stroke-linecap: square"/>
    </g>
   </g>
   <g id="xtick_8">
    <g id="line2d_10">
     <path d="M 96.850068 318.468785 
L 93.005599 320.037672 
" style="fill: none; stroke: #000000; stroke-width: 0.8; stroke-linecap: square"/>
    </g>
    <g id="text_5">
     <!-- 3.7 -->
     <g transform="translate(78.053029 342.021622) scale(0.1 -0.1)">
      <defs>
       <path id="DejaVuSans-37" d="M 525 4666 
L 3525 4666 
L 3525 4397 
L 1831 0 
L 1172 0 
L 2766 4134 
L 525 4134 
L 525 4666 
z
" transform="scale(0.015625)"/>
      </defs>
      <use xlink:href="#DejaVuSans-33"/>
      <use xlink:href="#DejaVuSans-2e" transform="translate(63.623047 0)"/>
      <use xlink:href="#DejaVuSans-37" transform="translate(95.410156 0)"/>
     </g>
    </g>
   </g>
   <g id="text_6">
    <!-- $Z_2$ -->
    <g transform="translate(135.13872 389.939783) rotate(-331.672097) scale(0.1 -0.1)">
     <use xlink:href="#DejaVuSans-Oblique-5a" transform="translate(0 0.09375)"/>
     <use xlink:href="#DejaVuSans-32" transform="translate(68.505859 -16.3125) scale(0.7)"/>
    </g>
   </g>
  </g>
  <g id="axis3d_3">
   <g id="line2d_11">
    <path d="M 95.569938 318.991192 
L 88.66622 128.007087 
" style="fill: none; stroke: #000000; stroke-width: 0.8; stroke-linecap: square"/>
   </g>
   <g id="xtick_9">
    <g id="line2d_12">
     <path d="M 96.850068 318.468785 
L 93.005599 320.037672 
" style="fill: none; stroke: #000000; stroke-width: 0.8; stroke-linecap: square"/>
    </g>
    <g id="text_7">
     <!-- 0.2 -->
     <g transform="translate(69.572736 326.295481) scale(0.1 -0.1)">
      <use xlink:href="#DejaVuSans-30"/>
      <use xlink:href="#DejaVuSans-2e" transform="translate(63.623047 0)"/>
      <use xlink:href="#DejaVuSans-32" transform="translate(95.410156 0)"/>
     </g>
    </g>
   </g>
   <g id="xtick_10">
    <g id="line2d_13">
     <path d="M 94.640275 256.786119 
L 90.733183 258.279338 
" style="fill: none; stroke: #000000; stroke-width: 0.8; stroke-linecap: square"/>
    </g>
   </g>
   <g id="xtick_11">
    <g id="line2d_14">
     <path d="M 92.361654 193.18223 
L 88.389872 194.594264 
" style="fill: none; stroke: #000000; stroke-width: 0.8; stroke-linecap: square"/>
    </g>
   </g>
   <g id="xtick_12">
    <g id="line2d_15">
     <path d="M 90.010938 127.565938 
L 85.972296 128.890856 
" style="fill: none; stroke: #000000; stroke-width: 0.8; stroke-linecap: square"/>
    </g>
    <g id="text_8">
     <!-- 2.7 -->
     <g transform="translate(61.814533 135.357127) scale(0.1 -0.1)">
      <use xlink:href="#DejaVuSans-32"/>
      <use xlink:href="#DejaVuSans-2e" transform="translate(63.623047 0)"/>
      <use xlink:href="#DejaVuSans-37" transform="translate(95.410156 0)"/>
     </g>
    </g>
   </g>
   <g id="text_9">
    <!-- $K$ -->
    <g transform="translate(48.775563 227.881055) scale(0.1 -0.1)">
     <defs>
      <path id="DejaVuSans-Oblique-4b" d="M 1081 4666 
L 1716 4666 
L 1331 2700 
L 3781 4666 
L 4622 4666 
L 1850 2438 
L 3878 0 
L 3109 0 
L 1247 2272 
L 806 0 
L 172 0 
L 1081 4666 
z
" transform="scale(0.015625)"/>
     </defs>
     <use xlink:href="#DejaVuSans-Oblique-4b" transform="translate(0 0.09375)"/>
    </g>
   </g>
  </g>
  <g id="axes_1">
   <g id="line2d_16">
    <path d="M 159.973968 182.8912 
L 161.483153 210.832375 
L 162.179974 227.933931 
L 162.275529 238.463895 
L 162.146104 242.083446 
L 161.918996 244.911357 
L 161.606881 247.103706 
L 161.220732 248.793992 
L 160.770081 250.081941 
L 160.263446 251.046202 
L 159.708486 251.753283 
L 159.111328 252.24697 
L 158.477323 252.558996 
L 157.811504 252.719999 
L 156.402987 252.703184 
L 154.916575 252.344241 
L 153.373456 251.735592 
L 151.792122 250.928879 
L 149.382381 249.363974 
L 146.961115 247.590922 
L 144.552315 245.484047 
L 142.179061 243.22261 
L 139.090682 239.784936 
L 136.846954 237.009149 
L 133.263646 231.904966 
L 129.89281 226.240902 
L 127.355361 221.294372 
L 125.549782 217.484132 
L 122.182662 209.429408 
L 118.66179 199.651668 
L 116.409808 192.728334 
L 113.237971 182.116915 
L 110.870114 173.679578 
L 105.687157 154.415073 
L 101.694215 140.815149 
L 100.431053 137.402897 
L 99.252696 134.712486 
L 99.23941 134.72465 
L 99.226736 134.744174 
L 99.197015 134.61802 
L 99.140344 134.661938 
L 99.053899 134.403611 
L 99.037589 134.423241 
L 99.010245 134.314519 
L 98.989875 134.360376 
L 98.852425 134.033628 
L 98.951926 134.383807 
L 98.850333 134.075631 
L 98.849387 134.249244 
L 98.791664 133.958241 
L 98.765571 134.067606 
" clip-path="url(#p1a2296157f)" style="fill: none; stroke: #ff0020; stroke-width: 1.5; stroke-linecap: square"/>
   </g>
   <g id="line2d_17">
    <path d="M 159.973968 182.8912 
L 161.712775 215.67147 
L 162.21008 229.085941 
L 162.232757 230.053278 
L 163.310918 286.280781 
L 163.108948 281.182467 
L 162.806447 278.50175 
L 162.455132 277.083618 
L 162.220995 276.543856 
L 162.817868 310.425192 
L 162.740727 309.597146 
L 162.173702 304.704395 
L 161.564002 301.189082 
L 160.916279 298.74631 
L 160.333645 297.307979 
L 160.655691 318.229451 
L 160.546982 317.594236 
L 159.774696 313.901758 
L 159.098764 311.649859 
L 158.411471 310.069649 
L 157.713822 309.02232 
L 157.479147 308.772322 
L 157.591353 319.754409 
L 157.591353 319.754409 
L 156.847995 317.751464 
L 156.101296 316.392131 
L 155.351542 315.537681 
L 154.724529 315.125642 
L 154.095666 314.933081 
L 154.105397 321.198216 
L 154.105397 321.198216 
L 153.325743 320.192353 
L 152.677009 319.678886 
L 151.899506 319.362828 
L 151.122872 319.288363 
L 150.476308 319.366411 
L 150.422188 322.728636 
L 150.422188 322.728636 
L 149.632942 322.331938 
L 148.846869 322.170142 
L 147.803289 322.205331 
L 146.764613 322.418066 
L 146.674265 324.120725 
L 146.674265 324.120725 
L 145.630451 323.993136 
L 144.336385 324.068844 
L 143.05419 324.267133 
L 142.946311 325.09604 
L 142.946311 325.09604 
L 141.29121 325.061485 
L 139.414675 325.152158 
L 139.300622 325.542978 
L 139.300622 325.542978 
L 135.901011 325.356635 
L 135.668754 325.515625 
L 128.265723 324.487549 
L 122.692318 323.249226 
L 116.037008 321.517068 
L 105.588979 318.538673 
L 99.831311 316.802063 
L 99.831144 316.804022 
" clip-path="url(#p1a2296157f)" style="fill: none; stroke: #ffff00; stroke-width: 1.5; stroke-linecap: square"/>
   </g>
   <g id="line2d_18">
    <path d="M 159.973968 182.8912 
L 161.827009 193.341732 
L 163.595293 202.156913 
L 165.28965 209.628758 
L 167.23755 217.132833 
L 169.104023 223.324032 
L 170.899337 228.441947 
L 172.632096 232.68077 
L 174.309576 236.199255 
L 175.937978 239.127382 
L 177.522618 241.571469 
L 179.322135 243.926066 
L 181.074546 245.850224 
L 182.785181 247.431386 
L 183.704755 295.56513 
L 183.704755 295.56513 
L 184.895382 291.413222 
L 186.080251 288.050336 
L 187.258713 285.352063 
L 188.43016 283.20304 
L 189.594154 281.505619 
L 190.750436 280.180336 
L 191.898907 279.163404 
L 193.266797 278.278766 
L 194.623677 277.694871 
L 195.969878 277.356893 
L 197.527506 277.21605 
L 199.071915 277.297165 
L 199.291512 277.3243 
L 199.796576 305.369507 
L 199.796576 305.369507 
L 200.791263 302.762618 
L 201.785313 300.713616 
L 202.778263 299.133488 
L 203.769707 297.94467 
L 204.759323 297.082661 
L 205.746867 296.494875 
L 206.732166 296.138655 
L 207.911403 295.968442 
L 209.087128 296.033696 
L 210.454314 296.356457 
L 212.010925 296.992003 
L 213.174342 297.622632 
L 213.472385 313.050298 
L 213.472385 313.050298 
L 214.305542 312.088965 
L 215.138131 311.418013 
L 215.970028 310.990993 
L 217.008767 310.741168 
L 218.046097 310.749352 
L 219.081897 310.966249 
L 220.322716 311.447452 
L 221.767269 312.247359 
L 223.619588 313.554972 
L 225.466327 315.080665 
L 225.691982 320.739338 
L 225.691982 320.739338 
L 226.83251 320.902425 
L 228.160759 321.360342 
L 229.675783 322.127406 
L 231.754071 323.44031 
L 235.895711 326.39357 
L 236.646913 326.929507 
L 236.83574 328.134993 
L 236.83574 328.134993 
L 246.110319 332.7052 
L 249.131426 333.805691 
L 252.292569 334.709159 
L 255.665801 335.42817 
L 259.278699 335.969542 
L 263.399991 336.364604 
L 268.33055 336.608475 
L 274.201312 336.667922 
L 281.016928 336.51251 
L 288.968842 336.103213 
L 297.732668 335.422633 
L 307.091202 334.46654 
L 316.771693 333.253148 
L 326.873367 331.763718 
L 338.74939 329.775586 
L 341.735032 329.333281 
L 345.196746 328.733301 
L 347.10578 328.452139 
L 349.97223 328.031652 
L 352.780588 327.632939 
L 355.531408 327.188389 
L 356.84576 327.03882 
L 359.328747 326.655397 
L 360.838902 326.46985 
L 365.196722 325.825247 
L 369.221919 325.218242 
L 372.507249 324.690834 
L 374.503059 324.38841 
L 376.85987 324.209389 
L 377.130883 324.31954 
L 377.766161 324.294976 
L 379.318973 323.966943 
L 383.252282 322.943274 
L 383.252282 322.943274 
" clip-path="url(#p1a2296157f)" style="fill: none; stroke: #00bfc4; stroke-width: 1.5; stroke-linecap: square"/>
   </g>
   <g id="line2d_19">
    <path d="M 159.973968 182.8912 
L 161.720284 215.836502 
L 162.208843 229.036112 
L 162.252029 230.984694 
L 163.310918 286.280783 
L 163.106451 281.147934 
L 162.806897 278.504326 
L 162.437649 277.035236 
L 162.158878 276.432932 
L 162.817868 310.425194 
L 162.68161 308.992422 
L 162.082206 304.079079 
L 161.463638 300.737869 
L 160.835362 298.509858 
L 160.234246 297.116664 
L 160.590329 314.955072 
L 160.495729 314.443741 
L 159.792406 311.308603 
L 159.106687 309.186178 
L 158.441861 307.791136 
L 157.80052 306.914107 
L 157.322384 306.497727 
L 157.526898 316.363444 
L 157.419322 316.066924 
L 156.700035 314.466069 
L 156.013466 313.463141 
L 155.360274 312.881785 
L 154.704503 312.580219 
L 154.009767 312.507166 
L 153.936497 312.511886 
L 154.054788 317.987999 
L 153.941786 317.852063 
L 153.264221 317.236964 
L 152.58729 316.913248 
L 151.873299 316.818089 
L 151.047102 316.937601 
L 150.334051 317.190075 
L 150.396964 319.983504 
L 150.320699 319.95954 
L 149.559519 319.846783 
L 148.687238 319.944457 
L 147.55402 320.30918 
L 146.651045 320.713707 
L 146.605775 322.021078 
L 145.398214 322.259418 
L 143.417642 322.920974 
L 142.972691 323.083094 
L 142.911925 323.653454 
L 139.361586 324.402791 
L 139.258907 324.631069 
L 135.148932 324.977357 
L 132.211073 324.851754 
L 129.120961 324.490033 
L 125.452459 323.827766 
L 120.660658 322.722927 
L 113.82719 320.901017 
L 102.979348 317.761263 
L 99.831468 316.800116 
L 99.831145 316.804597 
" clip-path="url(#p1a2296157f)" style="fill: none; stroke: #b8860b; stroke-width: 1.5; stroke-linecap: square"/>
   </g>
   <g id="line2d_20">
    <path d="M 159.973968 182.8912 
L 161.997099 194.237168 
L 163.920043 203.660558 
L 165.756573 211.529887 
L 167.517703 218.122217 
L 169.212512 223.655763 
L 170.84863 228.30791 
L 172.432558 232.225292 
L 173.969876 235.52994 
L 175.759872 238.828675 
L 177.496796 241.534571 
L 179.186711 243.763001 
L 180.834807 245.606333 
L 182.179518 246.902082 
L 182.785661 289.123098 
L 183.945 285.606645 
L 185.097843 282.769588 
L 186.243517 280.495748 
L 187.381505 278.68388 
L 188.511479 277.250429 
L 189.856668 275.936041 
L 191.190105 274.97927 
L 192.511992 274.310274 
L 193.822673 273.875011 
L 195.338216 273.606693 
L 197.053311 273.553026 
L 198.116586 273.631094 
L 198.357299 296.485583 
L 199.485299 294.007129 
L 200.611637 292.137669 
L 201.735628 290.759385 
L 202.856773 289.777957 
L 203.974737 289.119482 
L 205.089317 288.726286 
L 206.200409 288.553121 
L 207.529079 288.585841 
L 208.852741 288.835563 
L 210.390859 289.351307 
L 211.485614 289.843197 
L 211.583386 303.283752 
L 212.586041 302.272125 
L 213.588008 301.629 
L 214.589029 301.284276 
L 215.588918 301.182669 
L 216.787112 301.321231 
L 217.983355 301.689947 
L 219.376418 302.352721 
L 220.965096 303.352809 
L 222.945948 304.881305 
L 223.341471 305.216897 
L 223.366881 311.039011 
L 224.459976 311.20263 
L 225.551943 311.591848 
L 227.006106 312.374721 
L 228.639582 313.516181 
L 230.813589 315.320738 
L 234.06665 318.346979 
L 234.06911 319.78315 
L 236.678222 321.822414 
L 244.068639 327.766229 
L 247.028574 329.778822 
L 249.620185 331.283515 
L 252.215484 332.544147 
L 254.843796 333.583164 
L 257.594607 334.44117 
L 260.703163 335.170218 
L 263.99884 335.716578 
L 267.829561 336.124762 
L 272.403494 336.375929 
L 277.714088 336.438201 
L 284.127071 336.283379 
L 291.617807 335.87313 
L 299.977969 335.190877 
L 309.114148 334.220687 
L 318.825547 332.963619 
L 328.952439 331.428597 
L 356.074244 327.132388 
L 358.366418 326.817674 
L 361.195297 326.42399 
L 375.494238 324.213515 
L 375.508039 324.331467 
L 375.681861 324.529827 
L 376.093363 324.606864 
L 376.991586 324.51141 
L 379.186508 324.005401 
L 383.248595 322.943853 
L 383.248595 322.943853 
" clip-path="url(#p1a2296157f)" style="fill: none; stroke: #1b4f72; stroke-width: 1.5; stroke-linecap: square"/>
   </g>
   <g id="Path3DCollection_1">
    <defs>
     <path id="md5fda563a8" d="M 0 2.371708 
C 0.628984 2.371708 1.232292 2.12181 1.677051 1.677051 
C 2.12181 1.232292 2.371708 0.628984 2.371708 0 
C 2.371708 -0.628984 2.12181 -1.232292 1.677051 -1.677051 
C 1.232292 -2.12181 0.628984 -2.371708 0 -2.371708 
C -0.628984 -2.371708 -1.232292 -2.12181 -1.677051 -1.677051 
C -2.12181 -1.232292 -2.371708 -0.628984 -2.371708 0 
C -2.371708 0.628984 -2.12181 1.232292 -1.677051 1.677051 
C -1.232292 2.12181 -0.628984 2.371708 0 2.371708 
z
" style="stroke: #3b9c7d"/>
    </defs>
    <g clip-path="url(#p1a2296157f)">
     <use xlink:href="#md5fda563a8" x="99.830689" y="316.803874" style="fill: #3b9c7d; stroke: #3b9c7d"/>
    </g>
   </g>
   <g id="Path3DCollection_2">
    <defs>
     <path id="m5011628286" d="M 0 2.371708 
C 0.628984 2.371708 1.232292 2.12181 1.677051 1.677051 
C 2.12181 1.232292 2.371708 0.628984 2.371708 0 
C 2.371708 -0.628984 2.12181 -1.232292 1.677051 -1.677051 
C 1.232292 -2.12181 0.628984 -2.371708 0 -2.371708 
C -0.628984 -2.371708 -1.232292 -2.12181 -1.677051 -1.677051 
C -2.12181 -1.232292 -2.371708 -0.628984 -2.371708 0 
C -2.371708 0.628984 -2.12181 1.232292 -1.677051 1.677051 
C -1.232292 2.12181 -0.628984 2.371708 0 2.371708 
z
" style="stroke: #66ffcc"/>
    </defs>
    <g clip-path="url(#p1a2296157f)">
     <use xlink:href="#m5011628286" x="383.273507" y="322.93997" style="fill: #66ffcc; stroke: #66ffcc"/>
    </g>
   </g>
   <g id="Path3DCollection_3">
    <defs>
     <path id="mc957c6280f" d="M 0 2.371708 
C 0.628984 2.371708 1.232292 2.12181 1.677051 1.677051 
C 2.12181 1.232292 2.371708 0.628984 2.371708 0 
C 2.371708 -0.628984 2.12181 -1.232292 1.677051 -1.677051 
C 1.232292 -2.12181 0.628984 -2.371708 0 -2.371708 
C -0.628984 -2.371708 -1.232292 -2.12181 -1.677051 -1.677051 
C -2.12181 -1.232292 -2.371708 -0.628984 -2.371708 0 
C -2.371708 0.628984 -2.12181 1.232292 -1.677051 1.677051 
C -1.232292 2.12181 -0.628984 2.371708 0 2.371708 
z
" style="stroke: #000000"/>
    </defs>
    <g clip-path="url(#p1a2296157f)">
     <use xlink:href="#mc957c6280f" x="159.973968" y="182.8912" style="stroke: #000000"/>
    </g>
   </g>
   <g id="legend_1">
    <g id="patch_6">
     <path d="M 295.068 200.503812 
L 406.568 200.503812 
Q 408.568 200.503812 408.568 198.503812 
L 408.568 62.296 
Q 408.568 60.296 406.568 60.296 
L 295.068 60.296 
Q 293.068 60.296 293.068 62.296 
L 293.068 198.503812 
Q 293.068 200.503812 295.068 200.503812 
z
" style="fill: #ffffff; opacity: 0.8; stroke: #cccccc; stroke-linejoin: miter"/>
    </g>
    <g id="line2d_21">
     <path d="M 297.068 68.394437 
L 307.068 68.394437 
L 317.068 68.394437 
" style="fill: none; stroke: #ff0020; stroke-width: 1.5; stroke-linecap: square"/>
    </g>
    <g id="text_10">
     <!-- Uncontrolled -->
     <g transform="translate(325.068 71.894437) scale(0.1 -0.1)">
      <defs>
       <path id="DejaVuSans-55" d="M 556 4666 
L 1191 4666 
L 1191 1831 
Q 1191 1081 1462 751 
Q 1734 422 2344 422 
Q 2950 422 3222 751 
Q 3494 1081 3494 1831 
L 3494 4666 
L 4128 4666 
L 4128 1753 
Q 4128 841 3676 375 
Q 3225 -91 2344 -91 
Q 1459 -91 1007 375 
Q 556 841 556 1753 
L 556 4666 
z
" transform="scale(0.015625)"/>
       <path id="DejaVuSans-6e" d="M 3513 2113 
L 3513 0 
L 2938 0 
L 2938 2094 
Q 2938 2591 2744 2837 
Q 2550 3084 2163 3084 
Q 1697 3084 1428 2787 
Q 1159 2491 1159 1978 
L 1159 0 
L 581 0 
L 581 3500 
L 1159 3500 
L 1159 2956 
Q 1366 3272 1645 3428 
Q 1925 3584 2291 3584 
Q 2894 3584 3203 3211 
Q 3513 2838 3513 2113 
z
" transform="scale(0.015625)"/>
       <path id="DejaVuSans-63" d="M 3122 3366 
L 3122 2828 
Q 2878 2963 2633 3030 
Q 2388 3097 2138 3097 
Q 1578 3097 1268 2742 
Q 959 2388 959 1747 
Q 959 1106 1268 751 
Q 1578 397 2138 397 
Q 2388 397 2633 464 
Q 2878 531 3122 666 
L 3122 134 
Q 2881 22 2623 -34 
Q 2366 -91 2075 -91 
Q 1284 -91 818 406 
Q 353 903 353 1747 
Q 353 2603 823 3093 
Q 1294 3584 2113 3584 
Q 2378 3584 2631 3529 
Q 2884 3475 3122 3366 
z
" transform="scale(0.015625)"/>
       <path id="DejaVuSans-6f" d="M 1959 3097 
Q 1497 3097 1228 2736 
Q 959 2375 959 1747 
Q 959 1119 1226 758 
Q 1494 397 1959 397 
Q 2419 397 2687 759 
Q 2956 1122 2956 1747 
Q 2956 2369 2687 2733 
Q 2419 3097 1959 3097 
z
M 1959 3584 
Q 2709 3584 3137 3096 
Q 3566 2609 3566 1747 
Q 3566 888 3137 398 
Q 2709 -91 1959 -91 
Q 1206 -91 779 398 
Q 353 888 353 1747 
Q 353 2609 779 3096 
Q 1206 3584 1959 3584 
z
" transform="scale(0.015625)"/>
       <path id="DejaVuSans-74" d="M 1172 4494 
L 1172 3500 
L 2356 3500 
L 2356 3053 
L 1172 3053 
L 1172 1153 
Q 1172 725 1289 603 
Q 1406 481 1766 481 
L 2356 481 
L 2356 0 
L 1766 0 
Q 1100 0 847 248 
Q 594 497 594 1153 
L 594 3053 
L 172 3053 
L 172 3500 
L 594 3500 
L 594 4494 
L 1172 4494 
z
" transform="scale(0.015625)"/>
       <path id="DejaVuSans-72" d="M 2631 2963 
Q 2534 3019 2420 3045 
Q 2306 3072 2169 3072 
Q 1681 3072 1420 2755 
Q 1159 2438 1159 1844 
L 1159 0 
L 581 0 
L 581 3500 
L 1159 3500 
L 1159 2956 
Q 1341 3275 1631 3429 
Q 1922 3584 2338 3584 
Q 2397 3584 2469 3576 
Q 2541 3569 2628 3553 
L 2631 2963 
z
" transform="scale(0.015625)"/>
       <path id="DejaVuSans-6c" d="M 603 4863 
L 1178 4863 
L 1178 0 
L 603 0 
L 603 4863 
z
" transform="scale(0.015625)"/>
       <path id="DejaVuSans-65" d="M 3597 1894 
L 3597 1613 
L 953 1613 
Q 991 1019 1311 708 
Q 1631 397 2203 397 
Q 2534 397 2845 478 
Q 3156 559 3463 722 
L 3463 178 
Q 3153 47 2828 -22 
Q 2503 -91 2169 -91 
Q 1331 -91 842 396 
Q 353 884 353 1716 
Q 353 2575 817 3079 
Q 1281 3584 2069 3584 
Q 2775 3584 3186 3129 
Q 3597 2675 3597 1894 
z
M 3022 2063 
Q 3016 2534 2758 2815 
Q 2500 3097 2075 3097 
Q 1594 3097 1305 2825 
Q 1016 2553 972 2059 
L 3022 2063 
z
" transform="scale(0.015625)"/>
       <path id="DejaVuSans-64" d="M 2906 2969 
L 2906 4863 
L 3481 4863 
L 3481 0 
L 2906 0 
L 2906 525 
Q 2725 213 2448 61 
Q 2172 -91 1784 -91 
Q 1150 -91 751 415 
Q 353 922 353 1747 
Q 353 2572 751 3078 
Q 1150 3584 1784 3584 
Q 2172 3584 2448 3432 
Q 2725 3281 2906 2969 
z
M 947 1747 
Q 947 1113 1208 752 
Q 1469 391 1925 391 
Q 2381 391 2643 752 
Q 2906 1113 2906 1747 
Q 2906 2381 2643 2742 
Q 2381 3103 1925 3103 
Q 1469 3103 1208 2742 
Q 947 2381 947 1747 
z
" transform="scale(0.015625)"/>
      </defs>
      <use xlink:href="#DejaVuSans-55"/>
      <use xlink:href="#DejaVuSans-6e" transform="translate(73.193359 0)"/>
      <use xlink:href="#DejaVuSans-63" transform="translate(136.572266 0)"/>
      <use xlink:href="#DejaVuSans-6f" transform="translate(191.552734 0)"/>
      <use xlink:href="#DejaVuSans-6e" transform="translate(252.734375 0)"/>
      <use xlink:href="#DejaVuSans-74" transform="translate(316.113281 0)"/>
      <use xlink:href="#DejaVuSans-72" transform="translate(355.322266 0)"/>
      <use xlink:href="#DejaVuSans-6f" transform="translate(394.185547 0)"/>
      <use xlink:href="#DejaVuSans-6c" transform="translate(455.367188 0)"/>
      <use xlink:href="#DejaVuSans-6c" transform="translate(483.150391 0)"/>
      <use xlink:href="#DejaVuSans-65" transform="translate(510.933594 0)"/>
      <use xlink:href="#DejaVuSans-64" transform="translate(572.457031 0)"/>
     </g>
    </g>
    <g id="line2d_22">
     <path d="M 297.068 83.074125 
L 307.068 83.074125 
L 317.068 83.074125 
" style="fill: none; stroke: #ffff00; stroke-width: 1.5; stroke-linecap: square"/>
    </g>
    <g id="text_11">
     <!-- $u_p$ only -->
     <g transform="translate(325.068 86.574125) scale(0.1 -0.1)">
      <defs>
       <path id="DejaVuSans-Oblique-75" d="M 428 1388 
L 838 3500 
L 1416 3500 
L 1006 1409 
Q 975 1256 961 1147 
Q 947 1038 947 966 
Q 947 700 1109 554 
Q 1272 409 1569 409 
Q 2031 409 2368 721 
Q 2706 1034 2809 1563 
L 3194 3500 
L 3769 3500 
L 3091 0 
L 2516 0 
L 2631 550 
Q 2388 244 2052 76 
Q 1716 -91 1338 -91 
Q 878 -91 622 161 
Q 366 413 366 863 
Q 366 956 381 1097 
Q 397 1238 428 1388 
z
" transform="scale(0.015625)"/>
       <path id="DejaVuSans-Oblique-70" d="M 3175 2156 
Q 3175 2616 2975 2859 
Q 2775 3103 2400 3103 
Q 2144 3103 1911 2972 
Q 1678 2841 1497 2591 
Q 1319 2344 1212 1994 
Q 1106 1644 1106 1300 
Q 1106 863 1306 627 
Q 1506 391 1875 391 
Q 2147 391 2380 519 
Q 2613 647 2778 891 
Q 2956 1147 3065 1494 
Q 3175 1841 3175 2156 
z
M 1394 2969 
Q 1625 3272 1939 3428 
Q 2253 3584 2638 3584 
Q 3175 3584 3472 3232 
Q 3769 2881 3769 2247 
Q 3769 1728 3584 1258 
Q 3400 788 3053 416 
Q 2822 169 2531 39 
Q 2241 -91 1919 -91 
Q 1547 -91 1294 64 
Q 1041 219 916 525 
L 556 -1331 
L -19 -1331 
L 922 3500 
L 1497 3500 
L 1394 2969 
z
" transform="scale(0.015625)"/>
       <path id="DejaVuSans-20" transform="scale(0.015625)"/>
       <path id="DejaVuSans-79" d="M 2059 -325 
Q 1816 -950 1584 -1140 
Q 1353 -1331 966 -1331 
L 506 -1331 
L 506 -850 
L 844 -850 
Q 1081 -850 1212 -737 
Q 1344 -625 1503 -206 
L 1606 56 
L 191 3500 
L 800 3500 
L 1894 763 
L 2988 3500 
L 3597 3500 
L 2059 -325 
z
" transform="scale(0.015625)"/>
      </defs>
      <use xlink:href="#DejaVuSans-Oblique-75" transform="translate(0 0.015625)"/>
      <use xlink:href="#DejaVuSans-Oblique-70" transform="translate(63.378906 -16.390625) scale(0.7)"/>
      <use xlink:href="#DejaVuSans-20" transform="translate(110.546875 0.015625)"/>
      <use xlink:href="#DejaVuSans-6f" transform="translate(142.333984 0.015625)"/>
      <use xlink:href="#DejaVuSans-6e" transform="translate(203.515625 0.015625)"/>
      <use xlink:href="#DejaVuSans-6c" transform="translate(266.894531 0.015625)"/>
      <use xlink:href="#DejaVuSans-79" transform="translate(294.677734 0.015625)"/>
     </g>
    </g>
    <g id="line2d_23">
     <path d="M 297.068 98.774125 
L 307.068 98.774125 
L 317.068 98.774125 
" style="fill: none; stroke: #00bfc4; stroke-width: 1.5; stroke-linecap: square"/>
    </g>
    <g id="text_12">
     <!-- $full$ $u_p$ and $u_g$ -->
     <g transform="translate(325.068 102.274125) scale(0.1 -0.1)">
      <defs>
       <path id="DejaVuSans-Oblique-66" d="M 3059 4863 
L 2969 4384 
L 2419 4384 
Q 2106 4384 1964 4261 
Q 1822 4138 1753 3809 
L 1691 3500 
L 2638 3500 
L 2553 3053 
L 1606 3053 
L 1013 0 
L 434 0 
L 1031 3053 
L 481 3053 
L 563 3500 
L 1113 3500 
L 1159 3744 
Q 1278 4363 1576 4613 
Q 1875 4863 2516 4863 
L 3059 4863 
z
" transform="scale(0.015625)"/>
       <path id="DejaVuSans-Oblique-6c" d="M 1172 4863 
L 1747 4863 
L 800 0 
L 225 0 
L 1172 4863 
z
" transform="scale(0.015625)"/>
       <path id="DejaVuSans-61" d="M 2194 1759 
Q 1497 1759 1228 1600 
Q 959 1441 959 1056 
Q 959 750 1161 570 
Q 1363 391 1709 391 
Q 2188 391 2477 730 
Q 2766 1069 2766 1631 
L 2766 1759 
L 2194 1759 
z
M 3341 1997 
L 3341 0 
L 2766 0 
L 2766 531 
Q 2569 213 2275 61 
Q 1981 -91 1556 -91 
Q 1019 -91 701 211 
Q 384 513 384 1019 
Q 384 1609 779 1909 
Q 1175 2209 1959 2209 
L 2766 2209 
L 2766 2266 
Q 2766 2663 2505 2880 
Q 2244 3097 1772 3097 
Q 1472 3097 1187 3025 
Q 903 2953 641 2809 
L 641 3341 
Q 956 3463 1253 3523 
Q 1550 3584 1831 3584 
Q 2591 3584 2966 3190 
Q 3341 2797 3341 1997 
z
" transform="scale(0.015625)"/>
       <path id="DejaVuSans-Oblique-67" d="M 3816 3500 
L 3219 434 
Q 3047 -456 2561 -893 
Q 2075 -1331 1253 -1331 
Q 950 -1331 690 -1286 
Q 431 -1241 206 -1147 
L 313 -588 
Q 525 -725 762 -790 
Q 1000 -856 1269 -856 
Q 1816 -856 2167 -557 
Q 2519 -259 2631 300 
L 2681 563 
Q 2441 288 2122 144 
Q 1803 0 1434 0 
Q 903 0 598 351 
Q 294 703 294 1319 
Q 294 1803 478 2267 
Q 663 2731 997 3091 
Q 1219 3328 1514 3456 
Q 1809 3584 2131 3584 
Q 2484 3584 2746 3420 
Q 3009 3256 3138 2956 
L 3238 3500 
L 3816 3500 
z
M 2950 2216 
Q 2950 2641 2750 2872 
Q 2550 3103 2181 3103 
Q 1953 3103 1747 3012 
Q 1541 2922 1394 2759 
Q 1156 2491 1023 2127 
Q 891 1763 891 1375 
Q 891 944 1092 712 
Q 1294 481 1672 481 
Q 2219 481 2584 976 
Q 2950 1472 2950 2216 
z
" transform="scale(0.015625)"/>
      </defs>
      <use xlink:href="#DejaVuSans-Oblique-66" transform="translate(0 0.015625)"/>
      <use xlink:href="#DejaVuSans-Oblique-75" transform="translate(35.205078 0.015625)"/>
      <use xlink:href="#DejaVuSans-Oblique-6c" transform="translate(98.583984 0.015625)"/>
      <use xlink:href="#DejaVuSans-Oblique-6c" transform="translate(126.367188 0.015625)"/>
      <use xlink:href="#DejaVuSans-20" transform="translate(154.150391 0.015625)"/>
      <use xlink:href="#DejaVuSans-Oblique-75" transform="translate(185.9375 0.015625)"/>
      <use xlink:href="#DejaVuSans-Oblique-70" transform="translate(249.316406 -16.390625) scale(0.7)"/>
      <use xlink:href="#DejaVuSans-20" transform="translate(296.484375 0.015625)"/>
      <use xlink:href="#DejaVuSans-61" transform="translate(328.271484 0.015625)"/>
      <use xlink:href="#DejaVuSans-6e" transform="translate(389.550781 0.015625)"/>
      <use xlink:href="#DejaVuSans-64" transform="translate(452.929688 0.015625)"/>
      <use xlink:href="#DejaVuSans-20" transform="translate(516.40625 0.015625)"/>
      <use xlink:href="#DejaVuSans-Oblique-75" transform="translate(548.193359 0.015625)"/>
      <use xlink:href="#DejaVuSans-Oblique-67" transform="translate(611.572266 -16.390625) scale(0.7)"/>
     </g>
    </g>
    <g id="line2d_24">
     <path d="M 297.068 114.472562 
L 307.068 114.472562 
L 317.068 114.472562 
" style="fill: none; stroke: #b8860b; stroke-width: 1.5; stroke-linecap: square"/>
    </g>
    <g id="text_13">
     <!-- L-BFGS-B $u_p$ -->
     <g transform="translate(325.068 117.972562) scale(0.1 -0.1)">
      <defs>
       <path id="DejaVuSans-4c" d="M 628 4666 
L 1259 4666 
L 1259 531 
L 3531 531 
L 3531 0 
L 628 0 
L 628 4666 
z
" transform="scale(0.015625)"/>
       <path id="DejaVuSans-2d" d="M 313 2009 
L 1997 2009 
L 1997 1497 
L 313 1497 
L 313 2009 
z
" transform="scale(0.015625)"/>
       <path id="DejaVuSans-42" d="M 1259 2228 
L 1259 519 
L 2272 519 
Q 2781 519 3026 730 
Q 3272 941 3272 1375 
Q 3272 1813 3026 2020 
Q 2781 2228 2272 2228 
L 1259 2228 
z
M 1259 4147 
L 1259 2741 
L 2194 2741 
Q 2656 2741 2882 2914 
Q 3109 3088 3109 3444 
Q 3109 3797 2882 3972 
Q 2656 4147 2194 4147 
L 1259 4147 
z
M 628 4666 
L 2241 4666 
Q 2963 4666 3353 4366 
Q 3744 4066 3744 3513 
Q 3744 3084 3544 2831 
Q 3344 2578 2956 2516 
Q 3422 2416 3680 2098 
Q 3938 1781 3938 1306 
Q 3938 681 3513 340 
Q 3088 0 2303 0 
L 628 0 
L 628 4666 
z
" transform="scale(0.015625)"/>
       <path id="DejaVuSans-46" d="M 628 4666 
L 3309 4666 
L 3309 4134 
L 1259 4134 
L 1259 2759 
L 3109 2759 
L 3109 2228 
L 1259 2228 
L 1259 0 
L 628 0 
L 628 4666 
z
" transform="scale(0.015625)"/>
       <path id="DejaVuSans-47" d="M 3809 666 
L 3809 1919 
L 2778 1919 
L 2778 2438 
L 4434 2438 
L 4434 434 
Q 4069 175 3628 42 
Q 3188 -91 2688 -91 
Q 1594 -91 976 548 
Q 359 1188 359 2328 
Q 359 3472 976 4111 
Q 1594 4750 2688 4750 
Q 3144 4750 3555 4637 
Q 3966 4525 4313 4306 
L 4313 3634 
Q 3963 3931 3569 4081 
Q 3175 4231 2741 4231 
Q 1884 4231 1454 3753 
Q 1025 3275 1025 2328 
Q 1025 1384 1454 906 
Q 1884 428 2741 428 
Q 3075 428 3337 486 
Q 3600 544 3809 666 
z
" transform="scale(0.015625)"/>
       <path id="DejaVuSans-53" d="M 3425 4513 
L 3425 3897 
Q 3066 4069 2747 4153 
Q 2428 4238 2131 4238 
Q 1616 4238 1336 4038 
Q 1056 3838 1056 3469 
Q 1056 3159 1242 3001 
Q 1428 2844 1947 2747 
L 2328 2669 
Q 3034 2534 3370 2195 
Q 3706 1856 3706 1288 
Q 3706 609 3251 259 
Q 2797 -91 1919 -91 
Q 1588 -91 1214 -16 
Q 841 59 441 206 
L 441 856 
Q 825 641 1194 531 
Q 1563 422 1919 422 
Q 2459 422 2753 634 
Q 3047 847 3047 1241 
Q 3047 1584 2836 1778 
Q 2625 1972 2144 2069 
L 1759 2144 
Q 1053 2284 737 2584 
Q 422 2884 422 3419 
Q 422 4038 858 4394 
Q 1294 4750 2059 4750 
Q 2388 4750 2728 4690 
Q 3069 4631 3425 4513 
z
" transform="scale(0.015625)"/>
      </defs>
      <use xlink:href="#DejaVuSans-4c" transform="translate(0 0.78125)"/>
      <use xlink:href="#DejaVuSans-2d" transform="translate(55.712891 0.78125)"/>
      <use xlink:href="#DejaVuSans-42" transform="translate(91.796875 0.78125)"/>
      <use xlink:href="#DejaVuSans-46" transform="translate(160.400391 0.78125)"/>
      <use xlink:href="#DejaVuSans-47" transform="translate(217.919922 0.78125)"/>
      <use xlink:href="#DejaVuSans-53" transform="translate(295.410156 0.78125)"/>
      <use xlink:href="#DejaVuSans-2d" transform="translate(358.886719 0.78125)"/>
      <use xlink:href="#DejaVuSans-42" transform="translate(394.970703 0.78125)"/>
      <use xlink:href="#DejaVuSans-20" transform="translate(463.574219 0.78125)"/>
      <use xlink:href="#DejaVuSans-Oblique-75" transform="translate(495.361328 0.78125)"/>
      <use xlink:href="#DejaVuSans-Oblique-70" transform="translate(558.740234 -15.625) scale(0.7)"/>
     </g>
    </g>
    <g id="line2d_25">
     <path d="M 297.068 130.171 
L 307.068 130.171 
L 317.068 130.171 
" style="fill: none; stroke: #1b4f72; stroke-width: 1.5; stroke-linecap: square"/>
    </g>
    <g id="text_14">
     <!-- L-BFGS-B $u_p$&amp;$u_g$ -->
     <g transform="translate(325.068 133.671) scale(0.1 -0.1)">
      <defs>
       <path id="DejaVuSans-26" d="M 1556 2509 
Q 1272 2256 1139 2004 
Q 1006 1753 1006 1478 
Q 1006 1022 1337 719 
Q 1669 416 2169 416 
Q 2466 416 2725 514 
Q 2984 613 3213 813 
L 1556 2509 
z
M 1997 2859 
L 3584 1234 
Q 3769 1513 3872 1830 
Q 3975 2147 3994 2503 
L 4575 2503 
Q 4538 2091 4375 1687 
Q 4213 1284 3922 891 
L 4794 0 
L 4006 0 
L 3559 459 
Q 3234 181 2878 45 
Q 2522 -91 2113 -91 
Q 1359 -91 881 339 
Q 403 769 403 1441 
Q 403 1841 612 2192 
Q 822 2544 1241 2853 
Q 1091 3050 1012 3245 
Q 934 3441 934 3628 
Q 934 4134 1281 4442 
Q 1628 4750 2203 4750 
Q 2463 4750 2720 4694 
Q 2978 4638 3244 4525 
L 3244 3956 
Q 2972 4103 2725 4179 
Q 2478 4256 2266 4256 
Q 1938 4256 1733 4082 
Q 1528 3909 1528 3634 
Q 1528 3475 1620 3314 
Q 1713 3153 1997 2859 
z
" transform="scale(0.015625)"/>
      </defs>
      <use xlink:href="#DejaVuSans-4c" transform="translate(0 0.78125)"/>
      <use xlink:href="#DejaVuSans-2d" transform="translate(55.712891 0.78125)"/>
      <use xlink:href="#DejaVuSans-42" transform="translate(91.796875 0.78125)"/>
      <use xlink:href="#DejaVuSans-46" transform="translate(160.400391 0.78125)"/>
      <use xlink:href="#DejaVuSans-47" transform="translate(217.919922 0.78125)"/>
      <use xlink:href="#DejaVuSans-53" transform="translate(295.410156 0.78125)"/>
      <use xlink:href="#DejaVuSans-2d" transform="translate(358.886719 0.78125)"/>
      <use xlink:href="#DejaVuSans-42" transform="translate(394.970703 0.78125)"/>
      <use xlink:href="#DejaVuSans-20" transform="translate(463.574219 0.78125)"/>
      <use xlink:href="#DejaVuSans-Oblique-75" transform="translate(495.361328 0.78125)"/>
      <use xlink:href="#DejaVuSans-Oblique-70" transform="translate(558.740234 -15.625) scale(0.7)"/>
      <use xlink:href="#DejaVuSans-26" transform="translate(605.908203 0.78125)"/>
      <use xlink:href="#DejaVuSans-Oblique-75" transform="translate(683.886719 0.78125)"/>
      <use xlink:href="#DejaVuSans-Oblique-67" transform="translate(747.265625 -15.625) scale(0.7)"/>
     </g>
    </g>
    <g id="Path3DCollection_4">
     <g>
      <use xlink:href="#mc957c6280f" x="307.068" y="146.744438" style="stroke: #000000"/>
     </g>
    </g>
    <g id="text_15">
     <!-- $x_0$ -->
     <g transform="translate(325.068 149.369438) scale(0.1 -0.1)">
      <defs>
       <path id="DejaVuSans-Oblique-78" d="M 3841 3500 
L 2234 1784 
L 3219 0 
L 2559 0 
L 1819 1388 
L 531 0 
L -166 0 
L 1556 1844 
L 641 3500 
L 1300 3500 
L 1972 2234 
L 3144 3500 
L 3841 3500 
z
" transform="scale(0.015625)"/>
      </defs>
      <use xlink:href="#DejaVuSans-Oblique-78" transform="translate(0 0.3125)"/>
      <use xlink:href="#DejaVuSans-30" transform="translate(59.179688 -16.09375) scale(0.7)"/>
     </g>
    </g>
    <g id="Path3DCollection_5">
     <defs>
      <path id="ma0fd44b7c4" d="M 0 2.371708 
C 0.628984 2.371708 1.232292 2.12181 1.677051 1.677051 
C 2.12181 1.232292 2.371708 0.628984 2.371708 0 
C 2.371708 -0.628984 2.12181 -1.232292 1.677051 -1.677051 
C 1.232292 -2.12181 0.628984 -2.371708 0 -2.371708 
C -0.628984 -2.371708 -1.232292 -2.12181 -1.677051 -1.677051 
C -2.12181 -1.232292 -2.371708 -0.628984 -2.371708 0 
C -2.371708 0.628984 -2.12181 1.232292 -1.677051 1.677051 
C -1.232292 2.12181 -0.628984 2.371708 0 2.371708 
z
" style="stroke: #0000ff"/>
     </defs>
     <g>
      <use xlink:href="#ma0fd44b7c4" x="307.068" y="161.422562" style="fill: #0000ff; stroke: #0000ff"/>
     </g>
    </g>
    <g id="text_16">
     <!-- $x_{diseased}$ -->
     <g transform="translate(325.068 164.047562) scale(0.1 -0.1)">
      <defs>
       <path id="DejaVuSans-Oblique-64" d="M 2675 525 
Q 2444 222 2128 65 
Q 1813 -91 1428 -91 
Q 903 -91 598 267 
Q 294 625 294 1247 
Q 294 1766 478 2236 
Q 663 2706 1013 3078 
Q 1244 3325 1534 3454 
Q 1825 3584 2144 3584 
Q 2481 3584 2739 3421 
Q 2997 3259 3138 2956 
L 3513 4863 
L 4091 4863 
L 3144 0 
L 2566 0 
L 2675 525 
z
M 891 1350 
Q 891 897 1095 644 
Q 1300 391 1663 391 
Q 1931 391 2161 520 
Q 2391 650 2566 903 
Q 2750 1166 2856 1509 
Q 2963 1853 2963 2188 
Q 2963 2622 2758 2865 
Q 2553 3109 2194 3109 
Q 1922 3109 1687 2981 
Q 1453 2853 1288 2613 
Q 1106 2353 998 2009 
Q 891 1666 891 1350 
z
" transform="scale(0.015625)"/>
       <path id="DejaVuSans-Oblique-69" d="M 1172 4863 
L 1747 4863 
L 1606 4134 
L 1031 4134 
L 1172 4863 
z
M 909 3500 
L 1484 3500 
L 800 0 
L 225 0 
L 909 3500 
z
" transform="scale(0.015625)"/>
       <path id="DejaVuSans-Oblique-73" d="M 3200 3397 
L 3091 2853 
Q 2863 2978 2609 3040 
Q 2356 3103 2088 3103 
Q 1634 3103 1373 2948 
Q 1113 2794 1113 2528 
Q 1113 2219 1719 2053 
Q 1766 2041 1788 2034 
L 1972 1978 
Q 2547 1819 2739 1644 
Q 2931 1469 2931 1166 
Q 2931 609 2489 259 
Q 2047 -91 1331 -91 
Q 1053 -91 747 -37 
Q 441 16 72 128 
L 184 722 
Q 500 559 806 475 
Q 1113 391 1394 391 
Q 1816 391 2080 572 
Q 2344 753 2344 1031 
Q 2344 1331 1650 1516 
L 1591 1531 
L 1394 1581 
Q 956 1697 753 1886 
Q 550 2075 550 2369 
Q 550 2928 970 3256 
Q 1391 3584 2113 3584 
Q 2397 3584 2667 3537 
Q 2938 3491 3200 3397 
z
" transform="scale(0.015625)"/>
       <path id="DejaVuSans-Oblique-65" d="M 3078 2063 
Q 3088 2113 3092 2166 
Q 3097 2219 3097 2272 
Q 3097 2653 2873 2875 
Q 2650 3097 2266 3097 
Q 1838 3097 1509 2826 
Q 1181 2556 1013 2059 
L 3078 2063 
z
M 3578 1613 
L 903 1613 
Q 884 1494 878 1425 
Q 872 1356 872 1306 
Q 872 872 1139 634 
Q 1406 397 1894 397 
Q 2269 397 2603 481 
Q 2938 566 3225 728 
L 3116 159 
Q 2806 34 2476 -28 
Q 2147 -91 1806 -91 
Q 1078 -91 686 257 
Q 294 606 294 1247 
Q 294 1794 489 2264 
Q 684 2734 1063 3103 
Q 1306 3334 1642 3459 
Q 1978 3584 2356 3584 
Q 2950 3584 3301 3228 
Q 3653 2872 3653 2272 
Q 3653 2128 3634 1964 
Q 3616 1800 3578 1613 
z
" transform="scale(0.015625)"/>
       <path id="DejaVuSans-Oblique-61" d="M 3438 1997 
L 3047 0 
L 2472 0 
L 2578 531 
Q 2325 219 2001 64 
Q 1678 -91 1281 -91 
Q 834 -91 548 182 
Q 263 456 263 884 
Q 263 1497 752 1853 
Q 1241 2209 2100 2209 
L 2900 2209 
L 2931 2363 
Q 2938 2388 2941 2417 
Q 2944 2447 2944 2509 
Q 2944 2788 2717 2942 
Q 2491 3097 2081 3097 
Q 1800 3097 1504 3025 
Q 1209 2953 897 2809 
L 997 3341 
Q 1322 3463 1633 3523 
Q 1944 3584 2234 3584 
Q 2853 3584 3176 3315 
Q 3500 3047 3500 2534 
Q 3500 2431 3484 2292 
Q 3469 2153 3438 1997 
z
M 2816 1759 
L 2241 1759 
Q 1534 1759 1195 1570 
Q 856 1381 856 984 
Q 856 709 1029 553 
Q 1203 397 1509 397 
Q 1978 397 2328 733 
Q 2678 1069 2791 1631 
L 2816 1759 
z
" transform="scale(0.015625)"/>
      </defs>
      <use xlink:href="#DejaVuSans-Oblique-78" transform="translate(0 0.3125)"/>
      <use xlink:href="#DejaVuSans-Oblique-64" transform="translate(59.179688 -16.09375) scale(0.7)"/>
      <use xlink:href="#DejaVuSans-Oblique-69" transform="translate(103.613281 -16.09375) scale(0.7)"/>
      <use xlink:href="#DejaVuSans-Oblique-73" transform="translate(123.061523 -16.09375) scale(0.7)"/>
      <use xlink:href="#DejaVuSans-Oblique-65" transform="translate(159.53125 -16.09375) scale(0.7)"/>
      <use xlink:href="#DejaVuSans-Oblique-61" transform="translate(202.597656 -16.09375) scale(0.7)"/>
      <use xlink:href="#DejaVuSans-Oblique-73" transform="translate(245.493164 -16.09375) scale(0.7)"/>
      <use xlink:href="#DejaVuSans-Oblique-65" transform="translate(281.962891 -16.09375) scale(0.7)"/>
      <use xlink:href="#DejaVuSans-Oblique-64" transform="translate(325.029297 -16.09375) scale(0.7)"/>
     </g>
    </g>
    <g id="Path3DCollection_6">
     <g>
      <use xlink:href="#m5011628286" x="307.068" y="176.100687" style="fill: #66ffcc; stroke: #66ffcc"/>
     </g>
    </g>
    <g id="text_17">
     <!-- $x_{healthy}$ -->
     <g transform="translate(325.068 178.725687) scale(0.1 -0.1)">
      <defs>
       <path id="DejaVuSans-Oblique-68" d="M 3566 2113 
L 3156 0 
L 2578 0 
L 2988 2091 
Q 3016 2238 3031 2350 
Q 3047 2463 3047 2528 
Q 3047 2791 2881 2937 
Q 2716 3084 2419 3084 
Q 1956 3084 1617 2771 
Q 1278 2459 1178 1941 
L 800 0 
L 225 0 
L 1172 4863 
L 1747 4863 
L 1375 2950 
Q 1594 3244 1934 3414 
Q 2275 3584 2650 3584 
Q 3113 3584 3367 3334 
Q 3622 3084 3622 2631 
Q 3622 2519 3608 2391 
Q 3594 2263 3566 2113 
z
" transform="scale(0.015625)"/>
       <path id="DejaVuSans-Oblique-74" d="M 2706 3500 
L 2619 3053 
L 1472 3053 
L 1100 1153 
Q 1081 1047 1072 975 
Q 1063 903 1063 863 
Q 1063 663 1183 572 
Q 1303 481 1569 481 
L 2150 481 
L 2053 0 
L 1503 0 
Q 991 0 739 200 
Q 488 400 488 806 
Q 488 878 497 964 
Q 506 1050 525 1153 
L 897 3053 
L 409 3053 
L 500 3500 
L 978 3500 
L 1172 4494 
L 1747 4494 
L 1556 3500 
L 2706 3500 
z
" transform="scale(0.015625)"/>
       <path id="DejaVuSans-Oblique-79" d="M 1588 -325 
Q 1188 -997 936 -1164 
Q 684 -1331 294 -1331 
L -159 -1331 
L -63 -850 
L 269 -850 
Q 509 -850 678 -719 
Q 847 -588 1056 -206 
L 1234 128 
L 459 3500 
L 1069 3500 
L 1650 819 
L 3256 3500 
L 3859 3500 
L 1588 -325 
z
" transform="scale(0.015625)"/>
      </defs>
      <use xlink:href="#DejaVuSans-Oblique-78" transform="translate(0 0.3125)"/>
      <use xlink:href="#DejaVuSans-Oblique-68" transform="translate(59.179688 -16.09375) scale(0.7)"/>
      <use xlink:href="#DejaVuSans-Oblique-65" transform="translate(103.544922 -16.09375) scale(0.7)"/>
      <use xlink:href="#DejaVuSans-Oblique-61" transform="translate(146.611328 -16.09375) scale(0.7)"/>
      <use xlink:href="#DejaVuSans-Oblique-6c" transform="translate(189.506836 -16.09375) scale(0.7)"/>
      <use xlink:href="#DejaVuSans-Oblique-74" transform="translate(208.955078 -16.09375) scale(0.7)"/>
      <use xlink:href="#DejaVuSans-Oblique-68" transform="translate(236.401367 -16.09375) scale(0.7)"/>
      <use xlink:href="#DejaVuSans-Oblique-79" transform="translate(280.766602 -16.09375) scale(0.7)"/>
     </g>
    </g>
    <g id="Path3DCollection_7">
     <g>
      <use xlink:href="#md5fda563a8" x="307.068" y="191.799125" style="fill: #3b9c7d; stroke: #3b9c7d"/>
     </g>
    </g>
    <g id="text_18">
     <!-- $x_{residual}$ -->
     <g transform="translate(325.068 194.424125) scale(0.1 -0.1)">
      <defs>
       <path id="DejaVuSans-Oblique-72" d="M 2853 2969 
Q 2766 3016 2653 3041 
Q 2541 3066 2413 3066 
Q 1953 3066 1609 2717 
Q 1266 2369 1153 1784 
L 800 0 
L 225 0 
L 909 3500 
L 1484 3500 
L 1375 2956 
Q 1603 3259 1920 3421 
Q 2238 3584 2597 3584 
Q 2691 3584 2781 3573 
Q 2872 3563 2963 3538 
L 2853 2969 
z
" transform="scale(0.015625)"/>
      </defs>
      <use xlink:href="#DejaVuSans-Oblique-78" transform="translate(0 0.3125)"/>
      <use xlink:href="#DejaVuSans-Oblique-72" transform="translate(59.179688 -16.09375) scale(0.7)"/>
      <use xlink:href="#DejaVuSans-Oblique-65" transform="translate(87.958984 -16.09375) scale(0.7)"/>
      <use xlink:href="#DejaVuSans-Oblique-73" transform="translate(131.025391 -16.09375) scale(0.7)"/>
      <use xlink:href="#DejaVuSans-Oblique-69" transform="translate(167.495117 -16.09375) scale(0.7)"/>
      <use xlink:href="#DejaVuSans-Oblique-64" transform="translate(186.943359 -16.09375) scale(0.7)"/>
      <use xlink:href="#DejaVuSans-Oblique-75" transform="translate(231.376953 -16.09375) scale(0.7)"/>
      <use xlink:href="#DejaVuSans-Oblique-61" transform="translate(275.742188 -16.09375) scale(0.7)"/>
      <use xlink:href="#DejaVuSans-Oblique-6c" transform="translate(318.637695 -16.09375) scale(0.7)"/>
     </g>
    </g>
   </g>
   <g id="Path3DCollection_8">
    <g clip-path="url(#p1a2296157f)">
     <use xlink:href="#ma0fd44b7c4" x="98.723906" y="133.992587" style="fill: #0000ff; stroke: #0000ff"/>
    </g>
   </g>
  </g>
 </g>
 <defs>
  <clipPath id="p1a2296157f">
   <rect x="58.752" y="55.296" width="354.816" height="354.816"/>
  </clipPath>
 </defs>
</svg>
